<svg id="Layer_2" data-name="Layer 2" xmlns="http://www.w3.org/2000/svg" viewBox="0 0 500 147.54"><defs><style>.cls-1,.cls-4{fill:#fff;}.cls-2{fill:#a6a5a5;}.cls-3{fill:#010101;}.cls-4{opacity:0.1;}</style></defs><path class="cls-1" d="M496.68,130.66a14.19,14.19,0,0,1-14.19,14.19h-465A14.21,14.21,0,0,1,3.3,130.66V17.5A14.22,14.22,0,0,1,17.52,3.3h465a14.21,14.21,0,0,1,14.21,14.2h0V130.66Z"/><path class="cls-2" d="M482.48,148.15h-465A17.53,17.53,0,0,1,0,130.66V17.51A17.53,17.53,0,0,1,17.52,0h465A17.55,17.55,0,0,1,500,17.51V130.66a17.53,17.53,0,0,1-17.52,17.49Z"/><path class="cls-3" d="M496.68,130.66a14.19,14.19,0,0,1-14.19,14.19h-465A14.21,14.21,0,0,1,3.3,130.66V17.5A14.22,14.22,0,0,1,17.52,3.3h465a14.21,14.21,0,0,1,14.21,14.2h0V130.66Z"/><path class="cls-4" d="M482.48,0h-249L331,148.15h151.5A17.54,17.54,0,0,0,500,130.65V17.51A17.54,17.54,0,0,0,482.48,0Z"/><path class="cls-1" d="M115.21,75.4c-.1-11.67,9.56-17.35,10-17.62a21.55,21.55,0,0,0-17-9.16c-7.13-.75-14,4.27-17.68,4.27s-9.29-4.2-15.32-4.07a22.56,22.56,0,0,0-19,11.58C48.07,74.61,54.19,95.5,62.06,107c3.94,5.63,8.54,11.91,14.56,11.69s8.08-3.75,15.19-3.75,9.11,3.75,15.25,3.61c6.32-.1,10.3-5.66,14.1-11.33a46.68,46.68,0,0,0,6.45-13.13c-.15,0-12.28-4.68-12.4-18.68Zm-11.6-34.34c3.17-4,5.34-9.34,4.74-14.81-4.59.2-10.32,3.17-13.62,7-2.93,3.41-5.53,9-4.86,14.27,5.15.38,10.44-2.6,13.74-6.5Z"/><path class="cls-1" d="M200.51,113.68h-8.23l-4.51-14.16H172.1l-4.29,14.16h-8l15.53-48.22h9.59l15.59,48.22Zm-14.09-20.1L182.34,81q-.65-1.93-2.43-9.09h-.15Q179,75,177.47,81l-4,12.59Zm54,2.29q0,8.86-4.82,14a14.13,14.13,0,0,1-10.72,4.58c-4.6,0-7.92-1.64-9.93-4.93v18.24h-7.72V90.34q0-5.57-.29-11.43h6.79l.44,5.51h.14q3.87-6.23,11.74-6.22a12.9,12.9,0,0,1,10.26,4.86q4.11,4.88,4.11,12.81Zm-7.87.28a14.33,14.33,0,0,0-2.29-8.37,7.9,7.9,0,0,0-6.73-3.43,8.07,8.07,0,0,0-5.18,1.89,8.79,8.79,0,0,0-3,5,10.36,10.36,0,0,0-.36,2.35v5.8a9.27,9.27,0,0,0,2.33,6.41,7.71,7.71,0,0,0,6,2.61,7.94,7.94,0,0,0,6.8-3.36A14.84,14.84,0,0,0,232.5,96.15Zm47.87-.28q0,8.86-4.82,14a14.15,14.15,0,0,1-10.72,4.58q-6.91,0-9.93-4.93v18.24h-7.73V90.34c0-3.71-.1-7.52-.28-11.43h6.79l.43,5.51h.15q3.86-6.23,11.73-6.22a12.92,12.92,0,0,1,10.27,4.86q4.11,4.88,4.11,12.81Zm-7.87.28a14.33,14.33,0,0,0-2.3-8.37,7.88,7.88,0,0,0-6.71-3.43,8.12,8.12,0,0,0-5.2,1.89,8.84,8.84,0,0,0-3,5,10.6,10.6,0,0,0-.36,2.35v5.8a9.32,9.32,0,0,0,2.33,6.41,7.75,7.75,0,0,0,6,2.61,7.91,7.91,0,0,0,6.79-3.36A14.78,14.78,0,0,0,272.5,96.15Zm52.6,4a12.9,12.9,0,0,1-4.29,10q-4.71,4.21-13.14,4.22-7.79,0-12.49-3L297,105a21.48,21.48,0,0,0,11.16,3,10.53,10.53,0,0,0,6.8-2,6.42,6.42,0,0,0,2.44-5.25,6.74,6.74,0,0,0-2-4.94,18.85,18.85,0,0,0-6.65-3.72Q296,87.37,296,78.27a12.22,12.22,0,0,1,4.48-9.73q4.47-3.8,11.84-3.79A23.35,23.35,0,0,1,323.3,67l-1.94,6.3a19.13,19.13,0,0,0-9.27-2.22,9.44,9.44,0,0,0-6.39,2,5.74,5.74,0,0,0-1.94,4.37A5.87,5.87,0,0,0,306,82.21a24.89,24.89,0,0,0,7,3.72q6.24,2.52,9.16,5.86a12.23,12.23,0,0,1,3,8.37Zm25.61-15.45h-8.52v16.88c0,4.3,1.5,6.44,4.51,6.44a13.65,13.65,0,0,0,3.43-.36l.22,5.86a17.48,17.48,0,0,1-6,.86,9.27,9.27,0,0,1-7.16-2.79c-1.71-1.87-2.58-5-2.58-9.38V84.7h-5.07V78.9h5.07V72.53l7.59-2.29V78.9h8.52v5.81ZM389.06,96c0,5.35-1.53,9.73-4.58,13.17s-7.44,5.29-12.73,5.29q-7.67,0-12.21-5.07A18.5,18.5,0,0,1,355,96.59q0-8.09,4.68-13.23t12.64-5.15a15.87,15.87,0,0,1,12.3,5.08c3,3.28,4.44,7.52,4.44,12.72Zm-8,.18A15.53,15.53,0,0,0,379,88,7.65,7.65,0,0,0,372,83.85,7.77,7.77,0,0,0,365,88a15.83,15.83,0,0,0-2.07,8.34,15.57,15.57,0,0,0,2.07,8.21,7.93,7.93,0,0,0,14-.07,15.63,15.63,0,0,0,2.13-8.28Zm33.14-10.48a13.26,13.26,0,0,0-2.44-.22,7.33,7.33,0,0,0-6.3,3.08,11.66,11.66,0,0,0-1.92,6.87v18.24H395.8V89.86q0-5.48-.23-10.94h6.74l.28,6.65h.21a11.86,11.86,0,0,1,3.87-5.51,9.29,9.29,0,0,1,5.58-1.86,12.48,12.48,0,0,1,1.93.14v7.37Zm34.56,8.94a18,18,0,0,1-.29,3.51H425.28c.09,3.43,1.21,6.06,3.37,7.87a11.47,11.47,0,0,0,7.58,2.43,25.62,25.62,0,0,0,9.38-1.64l1.21,5.36a29.1,29.1,0,0,1-11.66,2.15q-8.09,0-12.71-4.76t-4.61-12.76a19.9,19.9,0,0,1,4.3-13.09,14.8,14.8,0,0,1,12.16-5.58q7.51,0,11.38,5.58a18.75,18.75,0,0,1,3.07,10.93Zm-7.37-2a10.48,10.48,0,0,0-1.5-5.94,6.76,6.76,0,0,0-6.16-3.22,7.32,7.32,0,0,0-6.15,3.15,11.51,11.51,0,0,0-2.28,6Z"/><path class="cls-1" d="M169.87,52.6a48.87,48.87,0,0,1-5.55-.28V29a40.88,40.88,0,0,1,6.54-.49c8.86,0,12.94,4.35,12.94,11.46C183.8,48.18,179,52.6,169.87,52.6Zm1.3-21.09a16,16,0,0,0-3.06.24V49.47a18.59,18.59,0,0,0,2.57.11c5.81,0,9.11-3.31,9.11-9.49C179.79,34.57,176.8,31.51,171.17,31.51Zm25.35,21.27c-5,0-8.23-3.73-8.23-8.79,0-5.27,3.3-9,8.51-9,4.92,0,8.23,3.56,8.23,8.76s-3.41,9.07-8.51,9.07Zm.15-15.05c-2.75,0-4.51,2.57-4.51,6.15S194,50,196.63,50s4.46-2.75,4.46-6.16-1.75-6.08-4.42-6.08Zm36.84-2.42-5.34,17.08h-3.49L222.47,45a54.26,54.26,0,0,1-1.37-5.52H221A35.91,35.91,0,0,1,219.65,45l-2.35,7.42h-3.52l-5-17.08h3.9l1.94,8.12q.67,2.9,1.16,5.49h.07c.28-1.44.74-3.24,1.41-5.45l2.42-8.16h3.1l2.32,8c.56,1.94,1,3.84,1.38,5.63h.1a47.12,47.12,0,0,1,1.16-5.63l2.07-8Zm19.68,17.08h-3.8V42.58c0-3-1.16-4.53-3.44-4.53a3.94,3.94,0,0,0-3.8,4.18V52.39h-3.8V40.19c0-1.51,0-3.13-.14-4.89h3.34l.18,2.64h.1a6.15,6.15,0,0,1,5.42-3c3.59,0,5.95,2.75,5.95,7.21V52.39Zm10.48,0h-3.81V27.47h3.81Zm13.84.39c-5,0-8.23-3.73-8.23-8.79,0-5.27,3.31-9,8.51-9,4.93,0,8.23,3.56,8.23,8.76s-3.41,9.07-8.51,9.07Zm.15-15.05c-2.75,0-4.5,2.57-4.5,6.15S275,50,277.62,50s4.46-2.75,4.46-6.16-1.75-6.08-4.42-6.08ZM301,52.39l-.28-2h-.1a5.83,5.83,0,0,1-5,2.35,5,5,0,0,1-5.24-5c0-4.22,3.66-6.4,10-6.4V41c0-2.25-1.2-3.38-3.55-3.38a8,8,0,0,0-4.47,1.27l-.77-2.5A11,11,0,0,1,297.46,35c4.46,0,6.72,2.36,6.72,7.07v6.3a24.68,24.68,0,0,0,.25,4.08Zm-.52-8.51c-4.22,0-6.34,1-6.34,3.45A2.42,2.42,0,0,0,296.75,50a3.64,3.64,0,0,0,3.73-3.48Zm22.14,8.51-.18-2.74h-.1a5.74,5.74,0,0,1-5.49,3.13c-4.12,0-7.17-3.62-7.17-8.72,0-5.34,3.16-9.11,7.48-9.11,2.29,0,3.91.77,4.82,2.32h.08v-9.8h3.8V47.79c0,1.65,0,3.2.14,4.6Zm-.56-10a4.13,4.13,0,0,0-4-4.43c-2.82,0-4.54,2.49-4.54,6s1.79,5.8,4.46,5.8a4.26,4.26,0,0,0,4.08-4.53V42.34ZM350,52.78c-5,0-8.23-3.73-8.23-8.79,0-5.27,3.31-9,8.51-9,4.93,0,8.23,3.56,8.23,8.76s-3.41,9.07-8.51,9.07Zm.14-15.05c-2.74,0-4.5,2.57-4.5,6.15s1.8,6.09,4.46,6.09,4.47-2.75,4.47-6.16-1.75-6.08-4.43-6.08Zm28.8,14.66h-3.8V42.58c0-3-1.16-4.53-3.45-4.53a3.94,3.94,0,0,0-3.8,4.18V52.39h-3.8V40.19c0-1.51,0-3.13-.14-4.89h3.34l.18,2.64h.11A6.11,6.11,0,0,1,373,35c3.59,0,6,2.74,6,7.21Zm25.55-14.24h-4.18v8.3c0,2.11.73,3.17,2.21,3.17a7.22,7.22,0,0,0,1.69-.18l.1,2.88a8.19,8.19,0,0,1-2.94.43c-3,0-4.79-1.65-4.79-6V38.15h-2.49V35.31h2.49V32.18l3.73-1.13V35.3h4.18v2.85Zm20.11,14.24h-3.8V42.65c0-3-1.15-4.6-3.44-4.6a3.72,3.72,0,0,0-3.8,4v10.3h-3.8V27.47h3.8V37.73h.07A5.77,5.77,0,0,1,418.74,35c3.62,0,5.83,2.81,5.83,7.28V52.39Zm20.6-7.63h-11.4c.07,3.24,2.22,5.06,5.39,5.06a12.94,12.94,0,0,0,4.6-.8l.59,2.63a14.12,14.12,0,0,1-5.73,1.06c-5.35,0-8.51-3.38-8.51-8.61s3.24-9.18,8.08-9.18c4.37,0,7.11,3.23,7.11,8.12a7.59,7.59,0,0,1-.13,1.72Zm-3.48-2.7c0-2.64-1.33-4.5-3.76-4.5-2.18,0-3.91,1.89-4.16,4.5Z"/></svg>