<svg id="Layer_1" data-name="Layer 1" xmlns="http://www.w3.org/2000/svg" xmlns:xlink="http://www.w3.org/1999/xlink" viewBox="0 0 500 147.54"><defs><style>.cls-1,.cls-4{fill:#fff;}.cls-2{fill:#a6a5a5;}.cls-3{fill:#010101;}.cls-4{opacity:0.1;}.cls-5{fill:url(#linear-gradient);}.cls-6{fill:url(#linear-gradient-2);}.cls-7{fill:url(#linear-gradient-3);}.cls-8{fill:url(#linear-gradient-4);}</style><linearGradient id="linear-gradient" x1="76.61" y1="30.11" x2="76.61" y2="120.23" gradientUnits="userSpaceOnUse"><stop offset="0" stop-color="#267caf"/><stop offset="0.29" stop-color="#4a92b4"/><stop offset="0.77" stop-color="#79bcba"/><stop offset="1" stop-color="#88cebc"/></linearGradient><linearGradient id="linear-gradient-2" x1="123.22" y1="64.76" x2="112.23" y2="89.62" gradientUnits="userSpaceOnUse"><stop offset="0" stop-color="#f48879"/><stop offset="0.12" stop-color="#f5907a"/><stop offset="0.71" stop-color="#fbb777"/><stop offset="1" stop-color="#fdc874"/></linearGradient><linearGradient id="linear-gradient-3" x1="106.87" y1="83.66" x2="57.42" y2="123.65" gradientUnits="userSpaceOnUse"><stop offset="0" stop-color="#eb413d"/><stop offset="0.17" stop-color="#d94452"/><stop offset="0.57" stop-color="#af487a"/><stop offset="0.86" stop-color="#954b92"/><stop offset="1" stop-color="#894a9c"/></linearGradient><linearGradient id="linear-gradient-4" x1="60.93" y1="32.55" x2="108.23" y2="68.67" gradientUnits="userSpaceOnUse"><stop offset="0" stop-color="#54c0ac"/><stop offset="1" stop-color="#dde79a"/></linearGradient></defs><path class="cls-1" d="M497.39,131a14.19,14.19,0,0,1-14.19,14.19h-465A14.21,14.21,0,0,1,4,131V17.81A14.23,14.23,0,0,1,18.23,3.6h465a14.21,14.21,0,0,1,14.21,14.21h0V131Z"/><path class="cls-2" d="M483.18,148.45H18.23A17.51,17.51,0,0,1,.71,131V17.81A17.52,17.52,0,0,1,18.23.31h465a17.54,17.54,0,0,1,17.52,17.5V131a17.52,17.52,0,0,1-17.52,17.49Z"/><path class="cls-3" d="M497.39,131a14.19,14.19,0,0,1-14.19,14.19h-465A14.21,14.21,0,0,1,4,131V17.81A14.23,14.23,0,0,1,18.23,3.6h465a14.21,14.21,0,0,1,14.21,14.21h0V131Z"/><path class="cls-4" d="M483.18.31h-249l97.54,148.14h151.5A17.53,17.53,0,0,0,500.71,131V17.81A17.54,17.54,0,0,0,483.18.31Z"/><path class="cls-1" d="M177.38,45.09c0,2.9-.72,5.43-2.53,7.24a11.23,11.23,0,0,1-19.2-8,11.13,11.13,0,0,1,11.23-11.23,9.52,9.52,0,0,1,4.34,1.09,7.86,7.86,0,0,1,3.26,2.53l-1.81,1.81A6.75,6.75,0,0,0,166.88,36a7.22,7.22,0,0,0-5.8,2.53c-1.81,1.45-2.53,3.62-2.53,6.16s.72,4.71,2.53,6.15,3.63,2.54,5.8,2.54A7.91,7.91,0,0,0,173,50.88a6,6,0,0,0,1.82-4.34h-8v-2.9h10.5v1.45ZM194,36h-9.78v6.88h9.05v2.53h-9.05v6.88H194v2.9H181.36V33.5H194Zm12,19.19h-2.9V36h-6.15V33.5h15.21V36H206Zm16.66,0V33.5h2.89V55.23Zm15.21,0H235V36H228.8V33.5h14.85V36h-6.16V55.23Zm34.4-2.9a11.23,11.23,0,0,1-19.19-8,11.23,11.23,0,1,1,22.45,0A10.64,10.64,0,0,1,272.26,52.33ZM258.5,50.52a8.54,8.54,0,0,0,5.79,2.54,7.22,7.22,0,0,0,5.8-2.54,8.72,8.72,0,0,0,2.53-6.15c0-2.54-.72-4.71-2.53-6.16a8.54,8.54,0,0,0-5.8-2.53,7.2,7.2,0,0,0-5.79,2.53A8.74,8.74,0,0,0,256,44.37,7.46,7.46,0,0,0,258.5,50.52Zm21,4.71V33.5h3.26l10.5,17v-17h2.9V55.23h-2.9L282,37.49V55.23Z"/><path class="cls-1" d="M252.34,82.39A15.24,15.24,0,0,0,236.77,98a15.46,15.46,0,0,0,15.57,15.57A15.24,15.24,0,0,0,267.91,98C267.91,88.54,261,82.39,252.34,82.39Zm0,24.62c-4.71,0-8.69-4-8.69-9.41s4-9.42,8.69-9.42S261,91.8,261,97.6C261,103,257.05,107,252.34,107ZM218.66,82.39A15.24,15.24,0,0,0,203.09,98a15.46,15.46,0,0,0,15.57,15.57A15.24,15.24,0,0,0,234.24,98C234.24,88.54,227.35,82.39,218.66,82.39Zm0,24.62c-4.7,0-8.69-4-8.69-9.41s4-9.42,8.69-9.42,8.69,3.62,8.69,9.42C227.35,103,223.37,107,218.66,107ZM178.47,87.1v6.51H194a13.66,13.66,0,0,1-3.62,8.33,16,16,0,0,1-11.95,4.71c-9.78,0-17-7.6-17-17.38a17.08,17.08,0,0,1,17-17.38,18,18,0,0,1,11.95,4.7l4.71-4.7a23.2,23.2,0,0,0-16.3-6.52c-13,0-24.26,10.86-24.26,23.9s11.22,23.9,24.26,23.9c7.24,0,12.31-2.17,16.66-6.88,4.34-4.35,5.79-10.5,5.79-15.21a13.6,13.6,0,0,0-.36-4Zm164.41,5.07c-1.45-3.63-5.07-9.78-13-9.78S315.35,88.54,315.35,98c0,8.69,6.52,15.57,15.21,15.57a14.86,14.86,0,0,0,12.68-6.88L338.17,103c-1.81,2.53-4,4.34-7.61,4.34s-5.79-1.44-7.6-4.7L343.6,94l-.72-1.81Zm-21,5.07c0-5.8,4.71-9.06,8-9.06,2.53,0,5.07,1.45,5.79,3.26l-13.76,5.8Zm-17,14.84h6.88V66.82h-6.88ZM294,85.65A11.93,11.93,0,0,0,285.66,82c-7.61,0-14.85,6.88-14.85,15.57a15,15,0,0,0,14.85,15.21,10.41,10.41,0,0,0,8-3.62H294v2.17c0,5.79-3.26,9-8.33,9a8.06,8.06,0,0,1-7.61-5.43l-5.79,2.53A14.94,14.94,0,0,0,286,126.57c8,0,14.49-4.71,14.49-15.94V83.11H294v2.54ZM286,107c-4.71,0-8.69-4-8.69-9.41s4-9.42,8.69-9.42,8.33,4,8.33,9.42S290.73,107,286,107Zm88.36-40.19h-16.3v45.26H365v-17h9.41c7.61,0,14.85-5.43,14.85-14.12S382,66.82,374.38,66.82Zm.36,21.72H365V73h9.77a8,8,0,0,1,8,7.61c-.36,4-3.26,8-8,8ZM416.39,82c-5.07,0-10.14,2.17-11.95,6.88l6.15,2.53c1.45-2.53,3.63-3.26,6.16-3.26,3.62,0,6.88,2.17,7.24,5.8v.36a14.26,14.26,0,0,0-6.88-1.81c-6.52,0-13,3.62-13,10.14,0,6.15,5.43,10.14,11.22,10.14,4.71,0,6.88-2.18,8.69-4.35h.37v3.62h6.51V94.7C430.15,86.73,424,82,416.39,82Zm-.73,25c-2.17,0-5.43-1.08-5.43-4,0-3.62,4-4.71,7.24-4.71a14.07,14.07,0,0,1,6.16,1.45A8.42,8.42,0,0,1,415.66,107Zm38-23.9-7.61,19.56h-.36l-8-19.56h-7.24l11.95,27.52-6.88,15.21h6.88l18.47-42.73Zm-60.84,29h6.88V66.82h-6.88Z"/><path class="cls-5" d="M54.52,30.37c-1.09,1.08-1.45,2.89-1.45,5.07v80a7.16,7.16,0,0,0,1.81,5.07l.36.36L100.15,76v-.73Z"/><path class="cls-6" d="M114.63,91.21,99.78,76.36V75.27l14.85-14.85.36.37,17.75,10.14c5.07,2.89,5.07,7.6,0,10.5Z"/><path class="cls-7" d="M115,90.84,99.78,75.63,54.52,120.9c1.81,1.81,4.34,1.81,7.6.36L115,90.84"/><path class="cls-8" d="M115,60.42l-52.87-30c-3.26-1.81-5.79-1.45-7.6.36l45.26,44.9L115,60.42Z"/></svg>